<svg id="Capa_1" data-name="Capa 1" xmlns="http://www.w3.org/2000/svg" viewBox="0 0 1920 705.39"><defs><style>.cls-1{fill:#0d0d0d;}.cls-2{fill:#0bc5c2;}.cls-3{fill:#25a3fc;}.cls-4{fill:#3571f3;}.cls-5{fill:#f4becb;}.cls-6{fill:#d4a5cf;}.cls-7{fill:#35f0b7;}.cls-8{fill:#4fc1fe;}.cls-9{fill:#f4f4f4;}.cls-10{fill:#d9d9d9;}.cls-11{fill:#9b1e27;}.cls-12{fill:#b11f29;}.cls-13{fill:#27a7ea;}.cls-14{fill:#cc212d;}</style></defs><path class="cls-1" d="M874.81,427c-19.6-7-36.28-16.89-39.83-41.3-4.59,6.62-8.29,12.64-12.66,18.12-10.13,12.69-23.57,13.55-35.79,2.65-13.28-11.86-17.67-31.72-10.65-49.27,4-10,10.72-18.46,17-27,5.27-7.23,15.92-6.87,25.11.31,10.95,8.53,15.61,20.64,17.89,33.85.5,2.9.75,5.84,1.37,10.74,12.25-16.32,28.77-23.41,44.89-30.89,10-4.65,15.94-11.28,16.27-22.73.21-7.45,2.55-14.33,9.94-18.06a10.65,10.65,0,0,1,12.5,1.4c3.41,2.82,3.83,5.9,2.41,10.06C910.54,352,911,389.89,917,428c.89,5.71,2.24,11-5.17,13.39-6.71,2.15-10.33-1.37-13.29-6.66-2.44-4.36-4.08-10.12-11.25-7.81Z"/><path class="cls-2" d="M77,422.3q-1-3.72-2-7.44A319.36,319.36,0,0,1,78.14,357c7.24-51.58,30.21-95.5,65.47-133.17a222.14,222.14,0,0,1,82.77-56.19c28.85-11.12,58.41-20.15,90.08-17.73,17.87,5.37,33.35,15.52,49.34,24.65,12.77,12.75,28,23.12,37.51,39-6.87,12.8-17.31,22.45-28.17,31.72-41.65-14.87-83.75-14.16-122.12,6.61-48.79,26.4-78.9,67.73-81.58,125.33-.92,19.71.93,39,8.85,57.42,3,15.4,12.43,27.68,20.14,40.78-13.2,4.94-22.07,16.62-34.8,22.24-2.67,1.18-6.51.33-6.53,4.88C144.76,497.16,133,487.8,121.6,478c-17.48-15-31-33.41-43.71-52.45l-.3-.45.25-.48C77.54,423.85,77.25,423.07,77,422.3Z"/><path class="cls-3" d="M409.34,625.23l-6.16.18c-23.38-7-45.86-15.87-64.24-32.54-17.91-16.23-33.29-34.27-39-58.62,21,1.39,41.72,1.52,62.28-4.51s38.25-16.46,55.32-28.64c1.18,10.16,9.73,14.88,16.16,20.92,2.67,2.51,6.54.4,9.06-2.38,1.54-1.72,4.17-3.13,3.17-5.93-1.31-3.64-4.16-2-6.89-1.89-3.41.16-7.19-3.48-5.79-5.52,7-10.21-3.44-9.38-7.35-12.65,14.22-14.58,25.21-31.38,34.28-49.5,19.72,2,39-1.23,57.38-7.52,13.45-4.6,28.09-8.53,37-21.49,4.37,2,7.56-5.49,12.16-1.47a87,87,0,0,0-1.63,24.57c-1.65,1-1.91,2.58-2.41,4.27-5.36,18.25-9.53,36.94-17.91,54.16-27.93,57.44-71.12,99.17-130,124.61C412.64,622.21,409.92,622.2,409.34,625.23Z"/><path class="cls-4" d="M299.92,534.25c5.73,24.35,21.11,42.39,39,58.62,18.38,16.67,40.86,25.55,64.24,32.54-38.66,13.86-78.25,18.08-118.91,11.48-3-.49-6.15-.54-9.23-.79L243.93,628c-25.24-10.2-49.84-21.48-71.69-38.13C147,570.67,126.85,547,109.58,520.73q-6.22-11.34-12.47-22.67c-9-23.47-18-46.95-19.21-72.49,12.69,19,26.22,37.4,43.7,52.44,11.4,9.79,23.16,19.15,37.5,24.51,2.9,5,8.64,5.29,13.13,7.17,29.16,12.23,59.24,19.65,91.24,14.92C275.47,528.39,287.49,532.07,299.92,534.25Z"/><path class="cls-5" d="M391,157.51c42.93-23.95,87.68-27.36,132.89-8.59,44.89,18.64,77.11,50.75,90.25,98.32,16.17,58.56,3.23,110.47-40.2,154-1.95,1.95-3.83,4-6.85,4.26.23-22.61-.53-45.17-5.88-67.24-12.55-51.76-38.78-95.37-79.34-130.19-15.66-13.44-32.05-26.13-51.42-33.68C417.05,169.18,404.09,163.17,391,157.51Z"/><path class="cls-6" d="M391,157.51c13.13,5.66,26.09,11.67,39.45,16.89,19.37,7.55,35.76,20.24,51.42,33.68,40.56,34.82,66.79,78.43,79.34,130.19,5.35,22.07,6.11,44.63,5.88,67.24q.19,4.11.39,8.19l-.73,0c-4.61-4-7.8,3.52-12.17,1.48-18.68-35.69-48.91-56.37-87.18-66.58-4.92-12.36-8.07-25.52-16.55-36.26-1.42-7.5-7.53-12.44-10.52-19.08-5.76-29.59-16.84-56.72-37-79.67-9.49-15.88-24.74-26.25-37.51-39,6.49-6.44,15.66-9.5,21.34-16.94Z"/><path class="cls-7" d="M316.46,149.9c-31.67-2.42-61.23,6.61-90.08,17.73a222.14,222.14,0,0,0-82.77,56.19C108.35,261.49,85.38,305.41,78.14,357A319.36,319.36,0,0,0,75,414.86c-12.61-21.19-17.82-44.71-19.21-68.76C49.85,242.83,116.86,158.21,219,139.89c33.18-6,65.85-2.51,97.44,9.6Z"/><path class="cls-8" d="M409.34,625.23c.58-3,3.3-3,5.45-4,58.84-25.44,102-67.17,130-124.61,8.38-17.22,12.55-35.91,17.91-54.16.5-1.69.76-3.31,2.41-4.27q2,3.11,4.09,6.2c.42,2.06.83,4.12,1.25,6.18-1,1.67-.51,3,1,4,.28,1.43.56,2.86.83,4.28a2.92,2.92,0,0,0,1,4.08c-.08,4.21-.31,8.43,1.25,12.48a53.28,53.28,0,0,0,0,20.6c-3.87,35.27-16.65,66.58-42.9,91.17C497.14,619.45,456.5,633.06,409.34,625.23Z"/><path class="cls-1" d="M760,299.33c-7.08,6.67-16.15,8.07-25,7.34-9.91-.8-11.92,3.84-13.19,12.22-5.34,35.37-7.35,71-8.47,106.65-.13,3.82.13,7.8-3.22,10.4-4.56,3.54-9.37,8.37-15.49,6.36-6.49-2.13-5.41-8.89-5.48-14.25-.45-33.72,5.12-67,7-100.6,1.18-21.2,1.38-21.19-18-13.22-2.22.91-4.44,1.85-6.67,2.76-5.59,2.27-11.28,2.84-14.35-3.35-3.38-6.81,0-12.11,6.22-15.26,13.27-6.68,27.06-12.08,42.13-12.74,15.46-.68,30.95-.73,46.42-1.22,3.64-.12,6.78.53,9.34,3.2A18.18,18.18,0,0,1,760,299.33Z"/><path class="cls-1" d="M1004.51,372c3.47-11.73-.87-23.9,2.75-35.94,2.46-8.2,6.32-12.9,14.26-13.74,7.55-.8,11.44,3.62,11.9,11,.28,4.49,3.23,5.49,7,5.88a85.68,85.68,0,0,1,22.88,6c10.3,4.09,18.15,10.42,18.27,22.41.13,12.54-4.59,22.83-16.39,28.76a102.32,102.32,0,0,1-31.49,9.46c-9.65,1.4-13.86,5.71-14.41,15.82-.95,17.5.23,34.26,9.84,49.48,3.59,5.69.88,8.06-4.41,9.49-8.72,2.36-17.89-2-20.63-10.74-1.93-6.16-2.51-12.75-3.69-19.14a5.55,5.55,0,0,0-.71-6.24l.12-31.14c1.46-1.26,1.46-2.68.46-4.22q.66-7.2,1.33-14.41C1004.57,387.47,1004.12,379.7,1004.51,372Zm20,8.75c-1,6.12,1.88,9.78,8.86,10,11.77.42,24.37-10.41,25.05-21.49.45-7.36-6.45-12.36-17.7-12.83C1031.75,356.12,1025.26,365.59,1024.5,380.79Z"/><path class="cls-1" d="M1582.1,390.94q-.55,3-1.09,6a3.28,3.28,0,0,0-.92,4.32c-1.43,4-1.43,8.07-1.12,12.2a5.76,5.76,0,0,0-.68,6.39q-.82,7.09-1.66,14.19-3,7.24-6,14.47c-5.57,2.37-8.92-1.09-12.23-4.65-1.08-5-5.4-4.52-9-5.21-7.77-1.49-15.72-2.33-23.29-4.48-22.56-6.43-30.21-30.74-15.66-49.3,11.64-14.86,27.77-19.45,45.82-18.91,5.71.17,11.24,1.48,11.15-7.31-.09-8.49-5.37-9.14-11.8-9-9.2.25-17.3,4.06-25.54,7.52-5.41,2.27-10.24,2.44-12.45-4.3-1.91-5.87-4.63-11.83,3.41-15.88,9.68-4.88,19.69-8.26,30.6-8.36,20.63-.2,29.59,7.3,34.8,28.92a27,27,0,0,0-.16,12.73l-3.18,16.34A3.46,3.46,0,0,0,1582.1,390.94Zm-33.56,28.84c2.94-.8,8.34,2.22,10.08-3.09,2.75-8.41,6.43-16.8,5-26-.39-2.45-.36-6.73-4.17-5.81-10.28,2.47-21.42,1.76-30.78,7.65a14.94,14.94,0,0,0-7.37,13.9c.28,5.8,5.16,7.58,9.55,9.6A36.92,36.92,0,0,0,1548.54,419.78Z"/><path class="cls-1" d="M1390.77,361.3c-2,15.28.19,30.19,4.67,44.72,3.32,10.75,7.77,11.72,16.07,4.18,15.9-14.44,20.46-42,10.35-62.89-1.49-3.09-3.49-5.94-4.84-9.08-2-4.65-5.28-10,0-14.06s11.27-3.09,16.36.71c9.05,6.76,13.89,16.24,14.73,27.29,1.37,18-1,35.65-8,52.47-4.92,11.84-12.8,21.06-24.67,26.53-16.13,7.42-29.67,3.47-39.06-11.61-8-12.9-10.82-27.47-11.89-42.23-.84-11.6-.49-23.32,0-35,.39-9,5.42-13.72,14.87-13.15s12.14,6,11.47,14.61C1390.41,349.62,1390.77,355.47,1390.77,361.3Z"/><path class="cls-1" d="M1863.82,384.54c5.42-5.15,7.15-11.53,9.69-17.38,6.73-15.46,11-31.78,16-47.8,4.11-12.91,11.25-16.14,23.42-11.07,7.78,3.24,9.07,8.37,4,14.32-4.26,5-6,10.65-7.74,16.56a425.73,425.73,0,0,1-30,75.48c-7.54,14.59-16.65,16-26.33,2.78-15.92-21.75-25.17-47.08-36.09-71.46-2.53-5.65-.26-10.25,5.23-12.73,6.72-3,13.55-3.62,18.71,2.89,5.86,7.39,8.49,16.4,11.76,25.07C1855.53,369.11,1858.05,377.27,1863.82,384.54Z"/><path class="cls-1" d="M1087.93,375.93c-.72-23,11.35-39.4,30.87-42,20.11-2.72,41.53,12.68,46.4,32.95,1.82,7.57.53,13.63-6.12,18-10.34,6.79-20.87,13.32-31.11,20.27-2.83,1.91-8.2,2.88-6.66,7.78s5.52,7.9,10.69,8.68c6.69,1,12.9-1,19.12-3.26,4-1.45,9-6.86,12,.66,2.8,6.95.32,13.12-6.37,16.55-19.26,9.89-46,2.25-57.62-16.18C1092.26,408.5,1088.5,393.92,1087.93,375.93Zm20.86-2.49c1,4.74-.71,12.1,8.93,12.16,12.94.07,25.3-9.38,25.09-19.51-.13-6.21-8.8-12-17.92-12C1114.75,354.12,1108.88,360.82,1108.79,373.44Z"/><path class="cls-1" d="M1639.23,396.74c-6.58-2.87-13.15-5.78-19.77-8.59A49.85,49.85,0,0,1,1601.72,376c-8.43-9.25-8.62-17.91-.7-27.6,16.87-20.63,45.1-22.17,67.93-3.68,1.86,1.5,3.59,3.17,5.37,4.76,2.27,5.61,2.13,11-2.94,14.88-4.55,3.5-9.24,1.14-13.55-1.12-5.19-2.72-10.18-5.8-15.36-8.53-8-4.19-18.91-3.11-21.79,2-2.78,4.92,3.43,13.47,12.93,17.15,11,4.25,21.54,9.16,31.2,16,6.18,4.36,10.61,9.64,11,17.51-7.28,27.23-24.51,38.76-55.38,37.07a3.67,3.67,0,0,0-4.29-1l-4-1.18a45.33,45.33,0,0,1-16.83-18.46c2.25-7.9,6.52-13.12,15.73-11.76,10.12,14.7,16.26,16.64,30.49,9.64l4.93-2.75C1655.77,408.85,1653.94,403.29,1639.23,396.74Z"/><path class="cls-1" d="M1320,416.39c9.46,3.89,15.26-3.2,22-7.34,4.52-2.75,9.36-8.78,14.4-4.47,5.78,5,1.1,11.71-1.85,16.73-7.22,12.23-19.12,16-32.57,15.41-6.8-.32-13.54-1.77-20.31-2.71-17.54-5.54-27.72-18-33.26-34.93l-.81-6.07a22.65,22.65,0,0,0,0-10.61q.39-3,.8-6.07a3.49,3.49,0,0,0,1.11-4.27l1-4a3.71,3.71,0,0,0,1.58-4.22c8.36-18.15,23.09-30.37,39.14-41.17,7.24-4.87,15.27-7.49,24.38-4.93,7.09,2,8.49,6,5.88,12.36-3.16,7.66-9.7,11.33-16.83,14.13-9.79,3.84-18.23,9.43-24.77,17.73-8.48,10.78-11,22.53-5.88,35.54C1297.55,410.91,1308.9,413.5,1320,416.39Z"/><path class="cls-5" d="M336.67,75.2c0-20.62,15.15-35.59,35.94-35.58,20.35,0,37.06,16.54,36.91,36.53-.15,19-17.7,36.26-36.62,36.09C352.45,112.05,336.64,95.89,336.67,75.2Z"/><path class="cls-1" d="M1195.82,284.24c5.6,2.21,8.85,5.83,8.54,12.33-1.67,34-1.53,67.93,0,101.9.51,11.74-.38,23.34-4.45,34.54-2.88,7.95-8,12.1-16.64,9.39-8.43-2.65-9.21-9-7.54-16.59,7.54-34.29,8-68.75,2.54-103.39-2-13-3.38-26.15,7.57-36.62Z"/><path class="cls-1" d="M1486.7,403.3c-1,10.23-1.21,20.54-5.09,30.34-3,7.57-8,11.27-16,8.83-8.34-2.52-9.53-8.66-7.79-16.42,7.74-34.63,7.71-69.47,2.53-104.42-1.37-9.24-2.27-18.47,1.28-27.45a14.94,14.94,0,0,1,13.34-9.95c6.53-.52,10,3.64,11.8,9.43-.9,4.81-2.64,9.56-1,14.54,0,30.25-1.76,60.51.93,90.72Z"/><path class="cls-1" d="M1800.25,399.13v4c-2,3.43-1.35,7-.55,10.57-1.57,7.36-2.42,14.9-5.61,21.87-3.1,6.77-8.34,8.92-15.23,7-7.22-2.05-9.88-7.32-8.29-14.33,8.38-37,8.4-74.14,2.29-111.49-1.36-8.32-1.84-17.21,3.17-24.81,7-10.55,16.3-10.35,23.73.14-.71,7.79-2.81,15.54-.84,23.42.54,23.69-2.09,47.4.75,71.06C1798.88,390.75,1798.24,395,1800.25,399.13Z"/><path class="cls-1" d="M989.22,398.91c-5.25,7.27-11.31,13.41-20.78,14.8-5.87-.29-11.12-2.54-16.29-5-.69-1.83-2.13-2-3.76-1.64.12-3.29-1.9-5.15-4.45-6.67l-7.38-15.71c.53-1.64.4-3.1-1.09-4.22l1.83-20.61c2.8-.61,1.58-2.53,1.35-4.13,4.51-6.88,9.05-13.73,13.54-20.62,8.09-12.44,18.29-14,30.12-4.45,8.67,7,12.44,17,15.93,27.08a3.24,3.24,0,0,0,1.09,4.11l.39,10.49q-2.52,8.94-5,17.88l-4,6.37C989.27,396.74,988.73,397.51,989.22,398.91Zm-9.67-25.43c-.18-9.92-7.09-23.58-11.34-22.4-8.7,2.4-12.53,10-15.22,17.94-1.8,5.27-1,10.48,3.65,13.93,4.83,3.57,10.47,5.5,16.38,2.5C978.25,382.8,979.49,377.83,979.55,373.48Z"/><path class="cls-1" d="M1226.3,370l2.1-12.82q1.17-2.86,2.35-5.72c5.72-6.48,12.47-8.28,20.26-4.07,3.82,2.07,6.91,5,4.8,9.94-8.93,20.85-8.57,42.51-5.9,64.4a11.77,11.77,0,0,1-6.32,7.73l-8.14.47-7.59-4.22c-5.81-16.2-.72-32.85-2-49.23C1227.34,374.44,1227,372.24,1226.3,370Z"/><path class="cls-5" d="M103.32,599.53c-.09,12.12-10.64,22.52-22.39,22.07-11.2-.42-21.36-11.06-21.35-22.35,0-12.82,9.09-21.25,22.66-21C95.31,578.45,103.41,586.64,103.32,599.53Z"/><path class="cls-5" d="M614,425.75c15.91-6.28,29.42-1.11,31.66,12.12,2.1,12.44-4.25,22-15.55,23.42-14.11,1.76-23.35-5.37-24.41-18.83C605.6,435.47,610.46,430.94,614,425.75Z"/><path class="cls-4" d="M316.46,149.9l0-.41c24.15-2.29,47.55,1.87,70.72,8.1-5.68,7.45-14.85,10.51-21.34,16.95C349.81,165.42,334.33,155.27,316.46,149.9Z"/><path class="cls-6" d="M-.27,409.71q0-15.79,0-31.59c1.73,0,3.46.09,5.17-.05,8.28-.64,15.92-.07,20.05,8.84,3.12,6.75,1.95,12.74-2.78,18.12C15.92,412.15,8.3,413.36-.27,409.71Z"/><path class="cls-1" d="M1243.73,330.11c-6.18-1.15-12.5-3.53-12.75-12.27s5.74-14.46,15.17-14.42c7.19,0,13.17,2.22,13.2,10.85C1259.38,322.59,1252.25,330.09,1243.73,330.11Z"/><path class="cls-9" d="M97.11,498.06q6.24,11.34,12.47,22.67c-11,1.78-21-3-26.14-13.29-1.85-3.66-2.18-8.23.9-11.64,3.59-4,5.87.64,8.71,1.82C94.25,498.12,95.75,497.93,97.11,498.06Z"/><path class="cls-6" d="M994.69,390.17q2.52-8.94,5-17.88l4.79-.25c-.39,7.66.06,15.43-2.93,22.75C999.36,393.14,998.22,389.89,994.69,390.17Z"/><path class="cls-9" d="M952.15,408.66c5.17,2.51,10.42,4.76,16.29,5C961.41,420.78,955.34,418.9,952.15,408.66Z"/><path class="cls-6" d="M999.67,444.56a5.55,5.55,0,0,1,.71,6.24C997.23,449.05,996.89,447,999.67,444.56Z"/><path class="cls-10" d="M1230.75,351.48q-1.18,2.85-2.35,5.72C1227.05,354.42,1227.4,352.34,1230.75,351.48Z"/><path class="cls-9" d="M935.47,380.42c1.49,1.12,1.62,2.58,1.09,4.22C933.63,383.9,932.36,382.72,935.47,380.42Z"/><path class="cls-9" d="M938.65,355.68c.23,1.6,1.45,3.52-1.35,4.13C934.35,357.34,935.93,356.32,938.65,355.68Z"/><path class="cls-6" d="M999.33,361.8a3.24,3.24,0,0,1-1.09-4.11C1001,358.44,1001.89,359.66,999.33,361.8Z"/><path class="cls-6" d="M1000.25,409.2c1,1.54,1,3-.46,4.22C997.12,411.7,997.71,410.35,1000.25,409.2Z"/><path class="cls-4" d="M77,422.3c.3.77.59,1.55.89,2.33C77.54,423.86,77.25,423.08,77,422.3Z"/><path class="cls-6" d="M989.22,398.91c-.49-1.4,0-2.17,1.48-2.37Z"/><path class="cls-11" d="M180.29,434.63c-7.92-18.38-9.77-37.71-8.85-57.42,2.68-57.6,32.79-98.93,81.58-125.33,38.37-20.77,80.47-21.48,122.12-6.62,4.59,5.05,13.65,3.32,16.61,10.86C369,275.7,349,298.06,327.6,319c-5.17,5.08-10.1,11.34-9.15,19.76q-10-6.32-20-12.63c-3.45-2.16-6.86-5.53-11.24-3.12s-3.59,7-3.66,11.1q-.34,23.14-.67,46.3c-15.51,3.86-28.57,13.41-40.48,22.56-9.43,7.24-20.15,8.7-29.58,14.13-1.37.79-4,0-5.84-.72-9.93-3.75-18.39.19-20.68,10.38C185.41,430.66,185.41,434.36,180.29,434.63Z"/><path class="cls-12" d="M180.29,434.63c5.12-.27,5.12-4,6-7.83,2.29-10.19,10.75-14.13,20.68-10.38,1.82.69,4.47,1.51,5.84.72,9.43-5.43,20.15-6.89,29.58-14.13,11.91-9.15,25-18.7,40.48-22.56.22,19.56.26,39.12.73,58.67.23,10.1,2.2,11.14,11.83,7.68.48,11.37-6.82,18.91-13.41,26.73-11.89,14.07-28.33,23.7-38.64,39.33-17.44-8.92-30.26-23.1-42.94-37.45C192.72,462.31,183.32,450,180.29,434.63ZM221,450.72c-.1-.67,0-1.7-.35-2-8.3-5.48-12.16-14.28-17-22.34-1.52-2.51-3.82-2.61-6.06-.59s-3.57,3.79-1.54,7c4.33,6.85,8.32,13.92,12.35,21,2.22,3.88,5.68,3.36,9,2.49C219.9,455.59,221,453.4,221,450.72Z"/><path class="cls-13" d="M200.43,475.41c12.68,14.35,25.5,28.53,42.94,37.45,5.71,5.59,14,6.75,20.1,11.75-32,4.73-62.08-2.69-91.24-14.92-4.49-1.88-10.23-2.17-13.13-7.17,0-4.54,3.86-3.69,6.53-4.87C178.36,492,187.23,480.35,200.43,475.41Z"/><path class="cls-13" d="M391.75,256.12c-3-7.54-12-5.81-16.61-10.86,10.86-9.26,21.3-18.91,28.17-31.71,20.14,22.95,31.22,50.08,37,79.67C426.22,278.12,412.35,262.74,391.75,256.12Z"/><path class="cls-14" d="M263.47,524.61c-6.06-5-14.39-6.16-20.1-11.75,10.31-15.63,26.75-25.26,38.64-39.33,6.59-7.82,13.89-15.36,13.41-26.73.75-.79,1.49-1.59,2.23-2.38,28.42-15.6,54.35-35.05,81.59-52.47,5.47-3.5,5.88-8,.91-12.59,11.94-14.56,25.8-27.44,37.21-42.51,3.72-4.92,7.83-10.77,15.72-10.3,2.54.16,3-2.31,3.71-4.28,2.27-6.66,7-9.95,14-10,8.48,10.74,11.63,23.9,16.55,36.27,6,32.49,4.88,64.45-7.2,95.58-9.07,18.12-20.06,34.92-34.28,49.5l-8.36,7.45c-17.07,12.18-34.9,22.66-55.32,28.64s-41.31,5.9-62.28,4.51C287.49,532.07,275.47,528.39,263.47,524.61Z"/><path class="cls-8" d="M460.16,444.15c12.08-31.13,13.18-63.09,7.2-95.58,38.27,10.2,68.5,30.88,87.18,66.57-8.91,13-23.55,16.89-37,21.49C499.16,442.92,479.88,446.17,460.16,444.15Z"/><path class="cls-13" d="M417.52,501.1l8.36-7.45c3.91,3.27,14.33,2.44,7.35,12.65-1.4,2,2.38,5.68,5.79,5.52,2.73-.13,5.58-1.75,6.89,1.89,1,2.8-1.63,4.21-3.17,5.93-2.52,2.78-6.39,4.89-9.06,2.38C427.25,516,418.7,511.26,417.52,501.1Z"/><path class="cls-12" d="M450.81,312.3c-7,0-11.75,3.31-14,10-.67,2-1.17,4.44-3.71,4.28-7.89-.47-12,5.38-15.72,10.3-11.41,15.07-25.27,27.95-37.21,42.51l-57.38-36.48-4.32-4.08c-.95-8.42,4-14.68,9.15-19.76,21.38-21,41.41-43.34,64.15-62.92,20.6,6.62,34.47,22,48.55,37.1C443.28,299.86,449.39,304.8,450.81,312.3Z"/><path class="cls-9" d="M887.36,361.85c4.38-.78,5.61,1.12,5.14,5.77-1.09,10.58-3,21.08-2.79,31.81.1,6.43-5.15,5.25-9.07,4.67-11.16-1.64-20.74-13.66-19.65-24.33C861.88,371,875.12,361.84,887.36,361.85Z"/><path class="cls-9" d="M816.83,373.71c-.66,6.4-3,12.55-11.81,13s-15.22-5.25-15.43-13,9.43-22.32,15.12-22.75C809.66,350.57,816.86,363.48,816.83,373.71Z"/><path class="cls-9" d="M1024.5,380.79c.76-15.2,7.25-24.67,16.21-24.29,11.25.47,18.15,5.47,17.7,12.83-.68,11.08-13.28,21.91-25.05,21.49C1026.38,390.57,1023.51,386.91,1024.5,380.79Z"/><path class="cls-9" d="M1548.54,419.78a36.92,36.92,0,0,1-17.7-3.75c-4.39-2-9.27-3.8-9.55-9.6a14.94,14.94,0,0,1,7.37-13.9c9.36-5.89,20.5-5.18,30.78-7.65,3.81-.92,3.78,3.36,4.17,5.81,1.44,9.2-2.24,17.59-5,26C1556.88,422,1551.48,419,1548.54,419.78Z"/><path class="cls-9" d="M1108.79,373.44c.09-12.62,6-19.32,16.1-19.34,9.12,0,17.79,5.78,17.92,12,.21,10.13-12.15,19.58-25.09,19.51C1108.08,385.54,1109.81,378.18,1108.79,373.44Z"/><path class="cls-9" d="M979.55,373.48c-.06,4.35-1.3,9.32-6.53,12-5.91,3-11.55,1.07-16.38-2.5C952,379.5,951.19,374.29,953,369c2.69-7.92,6.52-15.54,15.22-17.94C972.46,349.9,979.37,363.56,979.55,373.48Z"/><path class="cls-2" d="M318.45,338.8l4.32,4.08c-2.3,5.4,5.45,9.4,2.09,14.95-7-4.36-14.12-8.49-20.88-13.16-5.63-3.89-8-4.07-8,4,.29,24.71.06,49.42.11,74.13,0,2.86-1.14,6.54,3.57,7.18q-1,7.23-2.06,14.46c-.74.79-1.48,1.59-2.23,2.38-9.63,3.46-11.6,2.42-11.83-7.68-.47-19.55-.51-39.11-.73-58.67q.33-23.15.67-46.3c.07-4.09-.64-8.74,3.66-11.1s7.79,1,11.24,3.12Q308.45,332.47,318.45,338.8Z"/><path class="cls-11" d="M221,450.72c0,2.68-1.09,4.87-3.65,5.55-3.31.87-6.77,1.39-9-2.49-4-7-8-14.11-12.35-21-2-3.2-.62-5,1.54-7s4.54-1.92,6.06.59c4.88,8.06,8.74,16.86,17,22.34C221,449,220.89,450.05,221,450.72Z"/><path class="cls-13" d="M324.86,357.83c3.36-5.55-4.39-9.55-2.09-14.95l57.38,36.48c5,4.58,4.56,9.09-.91,12.59-27.24,17.42-53.17,36.87-81.59,52.47q1-7.23,2.06-14.46c19.26-13,38.37-26.2,57.84-38.86,6.3-4.1,7.74-6.33.34-10.88C346.57,373.26,335.84,365.34,324.86,357.83Z"/><path class="cls-11" d="M324.86,357.83c11,7.51,21.71,15.43,33,22.39,7.4,4.55,6,6.78-.34,10.88C338.08,403.76,319,417,299.71,430c-4.71-.64-3.56-4.32-3.57-7.18-.05-24.71.18-49.42-.11-74.13-.09-8,2.32-7.87,8-4C310.74,349.34,317.88,353.47,324.86,357.83Z"/><path class="cls-1" d="M1696.39,329.25l.58-.26,0-.63a7.56,7.56,0,0,0,3.83-5.26c10.65-11.23,22.88-19.63,38.62-22.07,12.7-2,24.93,4.35,28.67,15.08,2.56,7.31-.42,11.6-8.12,11-4.43-.32-8.78-1.66-13.19-2.43-18.92-3.29-34.74,7.86-37.22,26.58-1.52,11.5,1,22.53,4.91,33.35,1.73,4.75,4.16,5.41,8.61,3.55,9.2-3.86,18.47-7.61,27.93-10.77,4.83-1.61,11-2.85,13.46,3.46,2.59,6.47-2,10.43-7.33,12.84-7.53,3.4-15.22,6.51-23,9.32-8.85,3.19-10,8.7-5.33,16,2.76,4.35,6.31,8.19,9,12.56,2.35,3.76,7.79,8,2.28,12.41-5.36,4.27-12.13,5.63-17.78-.21-3.07-3.19-6.14-6.74-8-10.69-5.64-12.2-14-19.32-28.21-17-4.91-5.36-2.62-9.37,2.66-12.4,4.93-2.83,6.33-6.93,5.4-12.18q-3-16.68-6-33.36l-.06-4.15Q1692.3,341.63,1696.39,329.25Z"/></svg>